<svg width="30" height="30" viewBox="0 0 30 30" fill="none" xmlns="http://www.w3.org/2000/svg">
<g clip-path="url(#clip0_304_4)">
<circle cx="15" cy="15" r="15" fill="black"/>
<path d="M15.744 21.16C14.8053 21.16 13.9307 21.016 13.12 20.728C12.32 20.44 11.6213 20.04 11.024 19.528C10.4267 19.016 9.96267 18.4027 9.632 17.688C9.312 16.9733 9.152 16.184 9.152 15.32C9.152 14.456 9.31733 13.6667 9.648 12.952C9.97867 12.2373 10.4373 11.624 11.024 11.112C11.6213 10.6 12.3253 10.2 13.136 9.912C13.9467 9.624 14.8267 9.48 15.776 9.48C16.3733 9.48 16.9547 9.54933 17.52 9.688C18.0853 9.816 18.6187 10.0027 19.12 10.248C19.6213 10.4933 20.0693 10.792 20.464 11.144L18.448 13.672C18.2667 13.48 18.048 13.304 17.792 13.144C17.536 12.984 17.232 12.8507 16.88 12.744C16.5387 12.6373 16.1387 12.584 15.68 12.584C15.3067 12.584 14.9387 12.6427 14.576 12.76C14.2133 12.8773 13.8933 13.0533 13.616 13.288C13.3387 13.5227 13.1147 13.816 12.944 14.168C12.784 14.5093 12.704 14.9093 12.704 15.368C12.704 15.7947 12.7893 16.1787 12.96 16.52C13.1307 16.8507 13.3653 17.1333 13.664 17.368C13.9733 17.592 14.3253 17.768 14.72 17.896C15.1253 18.024 15.5627 18.088 16.032 18.088C16.4693 18.088 16.864 18.024 17.216 17.896C17.568 17.768 17.8773 17.6187 18.144 17.448C18.4213 17.2667 18.6613 17.08 18.864 16.888L20.496 19.496C20.1973 19.7733 19.7973 20.04 19.296 20.296C18.8053 20.552 18.2507 20.76 17.632 20.92C17.024 21.08 16.3947 21.16 15.744 21.16Z" fill="white"/>
</g>
<defs>
<clipPath id="clip0_304_4">
<rect width="30" height="30" fill="white"/>
</clipPath>
</defs>
</svg>
